<?xml version="1.0" encoding="UTF-8"?>
<svg xmlns="http://www.w3.org/2000/svg" version="1.1" viewBox="0 0 1200 1200">
  <defs>
    <style>
      .cls-1 {
        fill: #fff;
      }

      .cls-2 {
        fill: #6cbc51;
      }
    </style>
  </defs>
  <!-- Generator: Adobe Illustrator 28.6.0, SVG Export Plug-In . SVG Version: 1.2.0 Build 709)  -->
  <g>
    <g id="Layer_1">
      <g id="Layer_1-2" data-name="Layer_1">
        <path class="cls-2" d="M1164.1,741.2c-78,312.7-394.7,503.1-707.5,425.1C144,1088.3-46.4,771.6,31.6,458.8,109.6,146.1,426.3-44.3,739,33.7c312.7,78,503.1,394.8,425.1,707.5Z"/>
        <path class="cls-1" d="M438.2,537.4l-41.9,167.9c-3.2,7.9-11.2,19.7-29.4,15.2.6.9-46.6-11.6-46.6-11.6l-31.8,73.3,83.3,20.8c15.5,3.9,30.7,8,45.7,11.8l-26.5,106.4,64,16,26.3-105.3c17.5,4.7,34.4,9.1,51,13.2l-26.2,104.8,64,16,26.5-106.2c109.2,20.7,191.3,12.3,225.9-86.5,27.9-79.5-1.4-125.4-58.8-155.3,41.8-9.7,73.4-37.2,81.8-94,11.6-77.7-47.5-119.4-128.4-147.3l26.2-105.2-64-16-25.5,102.4c-16.8-4.2-34.1-8.2-51.3-12.1l25.7-103.1-64-16-26.3,105.2c-13.9-3.2-129.2-32-129.2-32l-17,68.4s47.5,10.9,46.5,11.6c25.9,6.5,30.6,23.6,29.8,37.3l-30,120.3h.2ZM699.3,729.1c-19.8,79.5-153.7,36.5-197.1,25.8l35.2-141c43.4,10.8,182.6,32.3,162,115.2h0ZM719.1,522.7c-18.1,72.3-129.5,35.6-165.7,26.6l31.9-127.9c36.2,9,152.6,25.8,133.8,101.3Z"/>
      </g>
    </g>
  </g>
</svg>