<svg width="24" height="24" viewBox="0 0 24 24" fill="none" xmlns="http://www.w3.org/2000/svg">
<path d="M0 12C0 5.37258 5.37258 0 12 0C18.6274 0 24 5.37258 24 12C24 18.6274 18.6274 24 12 24C5.37258 24 0 18.6274 0 12Z" fill="#F0B90B"/>
<path d="M12 4L13.9821 6.02381L8.99104 11L7.00896 9.02381L12 4Z" fill="white"/>
<path d="M15.009 7L16.991 9.02381L8.99104 17L7.00896 15.0238L15.009 7Z" fill="white"/>
<path d="M5.98209 10L7.96418 12.0238L5.98209 14L4 12.0238L5.98209 10Z" fill="white"/>
<path d="M18.0179 10L20 12.0238L12 20L10.0179 18.0238L18.0179 10Z" fill="white"/>
</svg>
