<svg width="32" height="32" viewBox="0 0 32 32" fill="none" xmlns="http://www.w3.org/2000/svg">
<path d="M16 32C24.8366 32 32 24.8366 32 16C32 7.16344 24.8366 0 16 0C7.16344 0 0 7.16344 0 16C0 24.8366 7.16344 32 16 32Z" fill="#0008FF"/>
<path fill-rule="evenodd" clip-rule="evenodd" d="M13.9907 21.3379C12.5016 21.3481 11.2829 20.1566 11.2585 18.6675H8.6499C8.6499 21.6118 11.0369 23.9995 13.9819 23.9995C16.9269 23.9995 19.3084 21.6172 19.3132 18.6763H16.7046C16.6761 20.1546 15.469 21.3379 13.99 21.3379H13.9907Z" fill="white"/>
<path d="M11.2761 14.6484H8.6499V17.2747H11.2761V14.6484Z" fill="white"/>
<path d="M15.2971 14.6484H12.6709V17.2747H15.2971V14.6484Z" fill="white"/>
<path d="M19.3156 14.6484H16.707V17.2747H19.3156V14.6484Z" fill="white"/>
<path d="M23.34 14.6484H20.7227V17.2747H23.34V14.6484Z" fill="white"/>
<path fill-rule="evenodd" clip-rule="evenodd" d="M23.343 13.3356C23.343 10.3885 20.954 7.99951 18.007 7.99951C15.0599 7.99951 12.6709 10.3885 12.6709 13.3356H15.2883C15.3168 11.8573 16.5239 10.674 18.0029 10.674C19.4886 10.6638 20.7059 11.8505 20.7351 13.3356H23.3437H23.343Z" fill="white"/>
<path d="M24.8895 16.5778H30.7699C30.7774 16.3855 30.7822 16.1931 30.7822 16.0001C30.7822 15.8071 30.7774 15.6147 30.7699 15.4224C30.6272 11.691 29.1081 8.20299 26.4527 5.54822C23.6606 2.75615 19.949 1.21875 16.0008 1.21875C12.0526 1.21875 8.34028 2.75615 5.5489 5.54822C2.75751 8.34028 1.21875 12.0513 1.21875 16.0001C1.21875 19.949 2.75615 23.6606 5.54822 26.452C8.34028 29.2441 12.0519 30.7815 16.0001 30.7815C17.8536 30.7815 19.6547 30.4423 21.3334 29.7946C23.2304 29.0619 24.971 27.9337 26.4527 26.4527C27.9337 24.9717 29.0619 23.2311 29.7946 21.3341H28.5386C27.1589 24.5653 24.5653 27.1589 21.3334 28.5386C19.6948 29.2386 17.8916 29.626 16.0001 29.626C8.68012 29.626 2.6909 23.8244 2.38709 16.5778H7.11145V15.4224H2.38709C2.6909 8.1758 8.6808 2.3735 16.0008 2.3735C23.3208 2.3735 29.31 8.1758 29.6138 15.4217H24.8895V16.5771V16.5778Z" fill="white"/>
</svg>
