<svg width="455" height="455" viewBox="0 0 455 455" fill="none" xmlns="http://www.w3.org/2000/svg">
<rect width="455" height="455" rx="227.5" fill="url(#paint0_linear_2976_6029)"/>
<path fill-rule="evenodd" clip-rule="evenodd" d="M307.302 204.183C307.302 249.028 271.015 285.379 226.243 285.379C181.472 285.379 145.194 249.028 145.194 204.183C145.194 135.395 224.243 50 226.243 50C228.243 50 307.302 135.395 307.302 204.183ZM274.509 204.194C274.509 230.894 252.903 252.543 226.243 252.543C199.585 252.543 177.978 230.894 177.978 204.194C177.978 177.493 199.185 156.244 225.496 155.844V205.678C225.496 205.678 256.079 193.406 271.015 186.071C273.276 191.67 274.521 197.784 274.521 204.183L274.509 204.194Z" fill="white"/>
<path d="M208.046 333.35L339.328 319.268C340.856 333.634 340.498 348.19 338.231 362.482L207.499 354.367C208.604 347.4 208.794 340.338 208.036 333.35H208.046Z" fill="white"/>
<path d="M242.451 294.925L113 320.952C115.842 335.118 120.546 348.894 126.977 361.84L249.26 314.805C246.124 308.491 243.83 301.808 242.451 294.914V294.925Z" fill="white"/>
<defs>
<linearGradient id="paint0_linear_2976_6029" x1="227.5" y1="0" x2="227.5" y2="455" gradientUnits="userSpaceOnUse">
<stop stop-color="#F7AEFF"/>
<stop offset="0.51" stop-color="#E60CFF"/>
<stop offset="0.79" stop-color="#A235FF"/>
<stop offset="1" stop-color="#5165FF"/>
</linearGradient>
</defs>
</svg>
