<svg width="24" height="24" viewBox="0 0 24 24" fill="none" xmlns="http://www.w3.org/2000/svg">
<path d="M12 24C18.6274 24 24 18.6274 24 12C24 5.37258 18.6274 0 12 0C5.37258 0 0 5.37258 0 12C0 18.6274 5.37258 24 12 24Z" fill="#0008FF"/>
<path fill-rule="evenodd" clip-rule="evenodd" d="M10.4958 16.0035C9.37898 16.0112 8.465 15.1176 8.44665 14.0007H6.49023C6.49023 16.209 8.28047 17.9997 10.4892 17.9997C12.698 17.9997 14.4841 16.213 14.4877 14.0074H12.5313C12.5099 15.1161 11.6045 16.0035 10.4953 16.0035H10.4958Z" fill="white"/>
<path d="M8.4599 10.9866H6.49023V12.9562H8.4599V10.9866Z" fill="white"/>
<path d="M11.4746 10.9866H9.50488V12.9562H11.4746V10.9866Z" fill="white"/>
<path d="M14.4877 10.9866H12.5312V12.9562H14.4877V10.9866Z" fill="white"/>
<path d="M17.5089 10.9866H15.5459V12.9562H17.5089V10.9866Z" fill="white"/>
<path fill-rule="evenodd" clip-rule="evenodd" d="M17.509 10.0018C17.509 7.79152 15.7172 5.99976 13.5069 5.99976C11.2966 5.99976 9.50488 7.79152 9.50488 10.0018H11.4679C11.4893 8.89309 12.3946 8.00562 13.5039 8.00562C14.6182 7.99797 15.5311 8.88799 15.5531 10.0018H17.5095H17.509Z" fill="white"/>
<path d="M18.6661 12.4332H23.0765C23.0821 12.289 23.0856 12.1447 23.0856 12C23.0856 11.8552 23.0821 11.7109 23.0765 11.5667C22.9694 8.76815 21.8301 6.15212 19.8385 4.16104C17.7445 2.06699 14.9607 0.91394 11.9996 0.91394C9.03848 0.91394 6.25424 2.06699 4.1607 4.16104C2.06716 6.25509 0.913086 9.03832 0.913086 12C0.913086 14.9616 2.06614 17.7453 4.16019 19.8389C6.25424 21.9329 9.03797 23.086 11.9991 23.086C13.3892 23.086 14.74 22.8316 15.9991 22.3458C17.4218 21.7963 18.7273 20.9501 19.8385 19.8394C20.9493 18.7286 21.7955 17.4232 22.345 16.0005H21.403C20.3682 18.4238 18.423 20.369 15.9991 21.4038C14.7701 21.9289 13.4177 22.2194 11.9991 22.2194C6.50911 22.2194 2.0172 17.8682 1.78934 12.4332H5.33261V11.5667H1.78934C2.0172 6.13173 6.50962 1.78 11.9996 1.78C17.4896 1.78 21.9815 6.13173 22.2094 11.5662H18.6661V12.4332Z" fill="white"/>
</svg>
