<svg width="200" height="200" viewBox="0 0 200 200" fill="none" xmlns="http://www.w3.org/2000/svg">
<path d="M197.008 124.19C183.651 177.762 129.385 210.365 75.8005 197.006C22.2386 183.65 -10.3679 129.387 2.99519 75.8197C16.3466 22.2419 70.6124 -10.3634 124.18 2.99234C177.761 16.3481 210.365 70.617 197.006 124.191L197.007 124.19H197.008Z" fill="#EABD3D"/>
<path d="M193.125 123.224L193.009 123.692C179.987 174.841 128.053 205.911 76.7683 193.125C25.3498 180.304 -5.95203 128.212 6.87625 76.7879L6.87649 76.7869C19.6936 25.353 71.7883 -5.94775 123.212 6.87353L123.213 6.87358C174.649 19.6949 205.95 71.7927 193.125 123.224Z" stroke="url(#paint0_linear_303_1953)" stroke-width="8"/>
<path d="M140.378 76.4442C139.09 63.0501 127.528 58.5605 112.929 57.2822L102.93 38.7037L91.6197 38.7056L101.62 56.7948C98.6467 56.7946 95.6078 56.8536 92.5878 56.9139L82.5901 38.7046L71.2867 38.7049L81.2825 57.2783C78.8344 57.3285 76.4291 57.3746 74.0847 57.3758L74.0833 57.3177L58.4845 57.3124L58.4872 69.3908C58.4872 69.3908 66.839 69.2317 66.7003 69.3847C71.2807 69.3857 72.7721 72.0455 73.2067 74.34C73.2068 91.3173 73.2059 108.257 73.2037 125.237C73.0033 126.678 72.1559 128.978 68.955 128.983C69.1002 129.111 60.7339 128.981 60.7339 128.981L58.4858 142.487L73.2044 142.486C75.9436 142.49 78.6384 142.537 81.2849 142.552L91.2894 161.343L102.587 161.344L92.5867 142.752C95.6891 142.816 98.6904 142.841 101.622 142.838L111.616 161.344L122.927 161.342L112.93 142.585C131.945 141.494 145.253 136.704 146.906 118.849C148.24 104.473 141.477 98.0584 130.684 95.467C137.242 92.1278 141.342 86.2453 140.383 76.4447L140.378 76.4442ZM124.554 116.623C124.56 130.665 100.514 129.069 92.8488 129.076L92.8524 104.18C100.519 104.182 124.555 101.976 124.554 116.623ZM119.294 81.4975C119.291 94.2726 99.2371 92.7827 92.8524 92.7832L92.8539 70.2041C99.2386 70.2036 119.293 68.1736 119.294 81.4975Z" fill="white"/>
<defs>
<linearGradient id="paint0_linear_303_1953" x1="162.976" y1="165.294" x2="-147.442" y2="-87.8625" gradientUnits="userSpaceOnUse">
<stop stop-color="#FBE38E"/>
<stop offset="0.412631" stop-color="#F5CB45" stop-opacity="0.587369"/>
<stop offset="1" stop-color="#CABA96" stop-opacity="0"/>
</linearGradient>
</defs>
</svg>
