<svg width="400" height="400" viewBox="0 0 400 400" fill="none" xmlns="http://www.w3.org/2000/svg">
<g clip-path="url(#clip0_362_8425)">
<mask id="mask0_362_8425" style="mask-type:luminance" maskUnits="userSpaceOnUse" x="0" y="0" width="400" height="400">
<path d="M400 0H0V400H400V0Z" fill="white"/>
</mask>
<g mask="url(#mask0_362_8425)">
<path d="M394.013 248.382C367.297 355.525 258.768 420.731 151.6 394.013C44.4766 367.3 -20.7368 258.776 5.99099 151.64C32.6937 44.4844 141.224 -20.7273 248.361 5.98492C355.522 32.6972 420.728 141.233 394.013 248.382Z" fill="url(#paint0_linear_362_8425)"/>
<path fill-rule="evenodd" clip-rule="evenodd" d="M233.693 91.9027C235.48 85.2336 242.335 81.2758 249.005 83.0627C255.674 84.8499 259.632 91.7049 257.844 98.3743L252.549 118.137L255.833 119.017C279.479 125.353 293.511 149.658 287.175 173.304L286.881 174.401C281.941 192.838 265.79 205.276 247.727 206.347L247.723 206.363L247.436 206.364L247.414 206.365L247.326 206.369C246.011 206.477 245.765 208.37 247.076 208.778L247.074 208.785C269.831 217.797 282.717 242.638 276.228 266.853C269.243 292.924 242.445 308.396 216.374 301.41L208.7 299.354L203.405 319.111C201.618 325.78 194.763 329.74 188.094 327.952C181.424 326.165 177.467 319.308 179.254 312.64L184.548 292.882L162.59 286.998L157.296 306.755C155.509 313.424 148.654 317.383 141.985 315.596C135.315 313.808 131.357 306.953 133.145 300.284L138.438 280.527L116.475 274.642L104.403 271.406C97.1273 269.457 92.8095 261.978 94.7592 254.703C96.7086 247.427 104.187 243.11 111.463 245.059L123.534 248.294L157.657 120.947L146.69 118.009C139.415 116.059 135.097 108.581 137.047 101.305C138.996 94.0296 146.475 89.7121 153.75 91.6615L164.728 94.603L182.288 99.3111L187.584 79.5483C189.371 72.8793 196.226 68.9215 202.895 70.7083C209.565 72.4955 213.522 79.3505 211.735 86.0199L206.44 105.782L228.398 111.666L233.693 91.9027ZM174.4 176.292C172.102 167.72 177.19 158.908 185.763 156.611L230.731 144.561C239.304 142.265 248.115 147.352 250.413 155.925C252.71 164.498 247.622 173.31 239.049 175.606L194.081 187.656C185.509 189.953 176.697 184.865 174.4 176.292ZM153.836 249.008C151.539 240.436 156.626 231.624 165.199 229.326L210.167 217.277C218.74 214.98 227.552 220.068 229.849 228.641C232.146 237.214 227.059 246.025 218.486 248.322L173.518 260.371C164.945 262.669 156.133 257.581 153.836 249.008Z" fill="white"/>
</g>
</g>
<defs>
<linearGradient id="paint0_linear_362_8425" x1="200" y1="1.08348e-05" x2="200" y2="400" gradientUnits="userSpaceOnUse">
<stop stop-color="#FEDF70"/>
<stop offset="1" stop-color="#D88528"/>
</linearGradient>
<clipPath id="clip0_362_8425">
<rect width="400" height="400" fill="white"/>
</clipPath>
</defs>
</svg>
