<svg width="400" height="400" viewBox="0 0 400 400" fill="none" xmlns="http://www.w3.org/2000/svg">
<mask id="mask0_363_16898" style="mask-type:luminance" maskUnits="userSpaceOnUse" x="0" y="0" width="400" height="400">
<path d="M400 0H0V400H400V0Z" fill="white"/>
</mask>
<g mask="url(#mask0_363_16898)">
<mask id="mask1_363_16898" style="mask-type:luminance" maskUnits="userSpaceOnUse" x="-1" y="0" width="401" height="401">
<path d="M399.976 0.00390625H-0.0234375V400.002H399.976V0.00390625Z" fill="white"/>
</mask>
<g mask="url(#mask1_363_16898)">
<path d="M199.977 400.002C310.433 400.002 399.976 310.46 399.976 200.004C399.976 89.5469 310.433 0.00390625 199.977 0.00390625C89.52 0.00390625 -0.0234375 89.5469 -0.0234375 200.004C-0.0234375 310.46 89.52 400.002 199.977 400.002Z" fill="#0C1013"/>
<path fill-rule="evenodd" clip-rule="evenodd" d="M199.99 357.504C286.975 357.504 357.492 286.989 357.492 200.005C357.492 113.02 286.975 42.505 199.99 42.505C113.005 42.505 42.4903 113.02 42.4903 200.005C42.4903 286.989 113.005 357.504 199.99 357.504ZM199.99 375.006C296.641 375.006 374.99 296.655 374.99 200.005C374.99 103.355 296.641 25.0049 199.99 25.0049C103.341 25.0049 24.9902 103.355 24.9902 200.005C24.9902 296.655 103.341 375.006 199.99 375.006Z" fill="#FC6521"/>
<path d="M258.623 140.234C249.719 119.553 229.212 115.168 204.092 119.445L196.038 87.5029L177.015 92.5379L184.963 124.372C179.981 125.671 174.842 126.754 169.755 128.216L161.806 96.5443L142.782 101.579L150.837 133.521C146.756 134.712 112.471 143.7 112.471 143.7L117.717 164.487C117.717 164.487 131.707 160.481 131.548 160.806C139.284 158.75 142.941 162.702 144.637 166.438L166.787 253.98C167.052 256.524 166.628 260.855 161.275 262.317C161.594 262.48 147.445 265.944 147.445 265.944L149.512 290.199C149.512 290.199 183.48 281.319 187.93 280.183L196.091 312.503L215.116 307.469L206.955 274.931C212.201 273.686 217.288 272.386 222.216 271.087L230.324 303.463L249.347 298.427L241.188 266.161C270.491 258.906 291.158 240.011 286.92 211.157C284.216 193.777 265.616 179.485 250.143 177.861C259.682 169.254 264.504 156.693 258.623 140.234ZM249.454 216.408C253.216 244.992 214.374 248.511 201.498 251.922L190.316 209.153C203.246 205.742 243.096 191.233 249.454 216.408ZM226.032 158.208C230.06 183.599 196.78 186.577 186.076 189.392L175.902 150.575C186.658 147.814 217.871 134.658 226.032 158.208Z" fill="white"/>
</g>
</g>
</svg>
