<?xml version="1.0" encoding="UTF-8"?>
<svg xmlns="http://www.w3.org/2000/svg" xmlns:xlink="http://www.w3.org/1999/xlink" width="20px" height="18px" viewBox="0 0 20 18" version="1.1">
<g id="surface1">
<path style=" stroke:none;fill-rule:evenodd;fill:rgb(31.37255%,68.627453%,58.431375%);fill-opacity:1;" d="M 3.664062 0.0898438 L 0.015625 8.015625 C -0.0117188 8.074219 0 8.148438 0.046875 8.191406 L 9.894531 17.953125 C 9.953125 18.011719 10.046875 18.011719 10.105469 17.953125 L 19.953125 8.195312 C 20 8.148438 20.011719 8.074219 19.984375 8.015625 L 16.335938 0.09375 C 16.3125 0.0390625 16.261719 0.00390625 16.203125 0.00390625 L 3.796875 0.00390625 C 3.738281 0.00390625 3.6875 0.0351562 3.664062 0.0898438 Z M 3.664062 0.0898438 "/>
<path style=" stroke:none;fill-rule:evenodd;fill:rgb(100%,100%,100%);fill-opacity:1;" d="M 11.265625 8.828125 C 11.195312 8.832031 10.828125 8.855469 10.015625 8.855469 C 9.367188 8.855469 8.90625 8.835938 8.746094 8.828125 C 6.238281 8.714844 4.371094 8.261719 4.371094 7.722656 C 4.371094 7.183594 6.238281 6.730469 8.746094 6.617188 L 8.746094 8.378906 C 8.90625 8.390625 9.378906 8.417969 10.027344 8.417969 C 10.804688 8.417969 11.191406 8.386719 11.261719 8.378906 L 11.261719 6.617188 C 13.761719 6.734375 15.628906 7.183594 15.628906 7.722656 C 15.628906 8.261719 13.761719 8.710938 11.261719 8.828125 Z M 11.265625 6.433594 L 11.265625 4.859375 L 14.753906 4.859375 L 14.753906 2.457031 L 5.257812 2.457031 L 5.257812 4.859375 L 8.746094 4.859375 L 8.746094 6.433594 C 5.910156 6.570312 3.777344 7.148438 3.777344 7.847656 C 3.777344 8.542969 5.910156 9.121094 8.746094 9.257812 L 8.746094 14.308594 L 11.265625 14.308594 L 11.265625 9.253906 C 14.09375 9.121094 16.222656 8.539062 16.222656 7.84375 C 16.222656 7.148438 14.09375 6.570312 11.265625 6.433594 Z M 11.265625 6.433594 Z M 11.265625 6.433594 "/>
</g>
</svg>
