<svg width="1200" height="1201" viewBox="0 0 1200 1201" fill="none" xmlns="http://www.w3.org/2000/svg">
<path d="M1164.1 741.336C1086.1 1054.04 769.4 1244.44 456.6 1166.44C144 1088.44 -46.4002 771.736 31.5998 458.936C109.6 146.236 426.3 -44.164 739 33.836C1051.7 111.836 1242.1 428.636 1164.1 741.336Z" fill="white"/>
<path fill-rule="evenodd" clip-rule="evenodd" d="M471.126 1108.22C751.757 1178.19 1035.9 1007.38 1105.88 726.815C1175.86 446.281 1005.04 162.036 724.478 92.0522C443.954 22.0782 159.802 192.885 89.8171 473.453C19.8374 754.09 190.659 1038.23 471.117 1108.22C471.12 1108.22 471.123 1108.22 471.126 1108.22ZM456.6 1166.44C769.4 1244.44 1086.1 1054.04 1164.1 741.336C1242.1 428.636 1051.7 111.836 739 33.836C426.3 -44.164 109.6 146.236 31.5998 458.936C-46.4002 771.736 144 1088.44 456.6 1166.44Z" fill="#6CBC51"/>
<path d="M457.503 542.716L420.105 692.577C417.249 699.628 410.109 710.16 393.864 706.144C394.4 706.947 352.271 695.79 352.271 695.79L323.888 761.214L398.238 779.78C412.072 783.261 425.639 786.92 439.028 790.312L415.375 885.28L472.498 899.561L495.973 805.575C511.592 809.77 526.677 813.697 541.493 817.356L518.108 910.896L575.232 925.177L598.884 830.388C696.352 848.863 769.631 841.366 800.513 753.181C825.415 682.223 799.263 641.255 748.031 614.567C785.34 605.91 813.544 581.364 821.042 530.667C831.395 461.315 778.645 424.096 706.438 399.193L729.823 305.296L672.699 291.015L649.939 382.413C634.944 378.665 619.503 375.094 604.151 371.613L627.089 279.591L569.966 265.31L546.491 359.207C534.085 356.351 431.173 330.645 431.173 330.645L416 391.696C416 391.696 458.396 401.425 457.503 402.05C480.621 407.851 484.816 423.114 484.102 435.342L457.325 542.716H457.503ZM690.55 713.82C672.877 784.778 553.364 746.398 514.627 736.848L546.045 610.997C584.782 620.637 709.026 639.827 690.639 713.82H690.55ZM708.223 529.596C692.067 594.128 592.637 561.371 560.326 553.338L588.799 439.18C621.109 447.213 725.003 462.208 708.223 529.596Z" fill="#6CBC51"/>
</svg>
