<svg width="32" height="32" viewBox="0 0 32 32" fill="none" xmlns="http://www.w3.org/2000/svg">
<g clip-path="url(#clip0_1_2)">
<path d="M31.5211 19.8706C29.3839 28.442 20.7014 33.6585 12.128 31.521C3.55811 29.384 -1.65895 20.7021 0.479282 12.1312C2.61551 3.55876 11.2979 -1.65819 19.8688 0.478795C28.4418 2.61577 33.6583 11.2987 31.5211 19.8706Z" fill="#E5A441"/>
<path d="M24.2589 25.7795C22.0297 27.664 19.1475 28.8 16 28.8C12.5545 28.8 9.42703 27.4387 7.126 25.2246L6.22075 26.1299C8.75355 28.5755 12.2011 30.08 16 30.08C19.5011 30.08 22.7037 28.8022 25.1669 26.6875L24.2589 25.7795Z" fill="#F4EDFF"/>
<path d="M25.2246 7.12604C27.4387 9.42707 28.8 12.5546 28.8 16C28.8 19.461 27.4264 22.6011 25.1946 24.905L26.0998 25.8102C28.5632 23.2746 30.08 19.8145 30.08 16C30.08 12.2011 28.5755 8.75359 26.1298 6.22079L25.2246 7.12604Z" fill="#F4EDFF"/>
<path d="M25.1996 5.34079C22.7321 3.20924 19.5166 1.92004 16 1.92004C12.1856 1.92004 8.72544 3.43685 6.18981 5.90019L7.09502 6.8054C9.39891 4.57363 12.539 3.20004 16 3.20004C19.1631 3.20004 22.0582 4.34737 24.2919 6.24856L25.1996 5.34079Z" fill="#F4EDFF"/>
<path d="M6.22056 7.74114L5.31256 6.83315C3.19784 9.29636 1.92 12.499 1.92 16C1.92 19.5166 3.20919 22.7321 5.34074 25.1997L6.24851 24.2919C4.34732 22.0582 3.2 19.1631 3.2 16C3.2 12.8525 4.33608 9.9703 6.22056 7.74114Z" fill="#F4EDFF"/>
<path fill-rule="evenodd" clip-rule="evenodd" d="M18.0516 9.04711C18.1655 8.62197 18.6025 8.36967 19.0276 8.48359C19.4528 8.5975 19.7051 9.0345 19.5912 9.45964L19.2539 10.7185L19.4646 10.7749C20.9719 11.1788 21.8664 12.7282 21.4625 14.2355L21.4438 14.3055C21.1291 15.4797 20.1011 16.2723 18.9509 16.3417L18.9506 16.3429L18.9323 16.343C18.8424 16.3435 18.8235 16.4701 18.9093 16.4968L18.9089 16.4984C20.3579 17.0738 21.178 18.6563 20.7647 20.199C20.3194 21.8609 18.6111 22.8472 16.9492 22.4018L16.4565 22.2698L16.1184 23.5314C16.0045 23.9565 15.5675 24.2088 15.1424 24.0949C14.7172 23.981 14.4649 23.544 14.5789 23.1189L14.9169 21.8573L13.5182 21.4825L13.1801 22.7444C13.0662 23.1696 12.6292 23.4219 12.2041 23.3079C11.7789 23.194 11.5266 22.757 11.6405 22.3319L11.9787 21.07L10.5809 20.6955L13.6561 9.21859L14.7761 9.51867L15.1133 8.26028C15.2272 7.83514 15.6642 7.58284 16.0893 7.69675C16.5145 7.81067 16.7668 8.24767 16.6528 8.67281L16.3157 9.9312L17.7143 10.306L18.0516 9.04711ZM12.5038 10.711C12.04 10.5868 11.7648 10.11 11.8891 9.64625C12.0134 9.18246 12.4901 8.90723 12.9539 9.0315L13.6537 9.21901L13.2036 10.8986L12.5038 10.711ZM9.80955 20.4896C9.34576 20.3654 9.07053 19.8886 9.1948 19.4249C9.31907 18.9611 9.79579 18.6858 10.2596 18.8101L11.0294 19.0164L10.5793 20.6959L9.80955 20.4896ZM14.2748 14.4263C14.1284 13.8798 14.4527 13.3181 14.9992 13.1717L17.8658 12.4036C18.4122 12.2571 18.974 12.5815 19.1204 13.1279C19.2668 13.6744 18.9425 14.2362 18.396 14.3826L15.5295 15.1507C14.983 15.2971 14.4213 14.9728 14.2748 14.4263ZM12.9601 19.0605C12.8136 18.514 13.1379 17.9523 13.6844 17.8059L16.551 17.0378C17.0975 16.8914 17.6592 17.2157 17.8056 17.7622C17.9521 18.3086 17.6278 18.8704 17.0813 19.0168L14.2147 19.7849C13.6682 19.9313 13.1065 19.607 12.9601 19.0605Z" fill="#F4EDFF"/>
</g>
<defs>
<clipPath id="clip0_1_2">
<rect width="32" height="32" fill="white"/>
</clipPath>
</defs>
</svg>
