<svg width="92" height="92" viewBox="0 0 92 92" fill="none" xmlns="http://www.w3.org/2000/svg">
<rect width="92" height="92" rx="46" fill="#141414"/>
<path d="M58.5221 48.5803C59.2629 48.759 59.9871 49.0024 60.6866 49.3076C63.1375 50.4084 64.5402 52.3087 64.8789 55.001C65.1562 56.9908 64.9556 59.019 64.2943 60.9133C63.4713 63.2049 61.866 64.7483 59.7066 65.7361C57.9164 66.556 56.0176 66.9417 54.083 67.1786C53.3793 67.2667 52.673 67.3272 51.9668 67.3782C51.7379 67.3935 51.6883 67.4821 51.6919 67.7055C51.7208 69.9692 51.729 72.2337 51.7629 74.4985C51.7678 74.8183 51.6941 74.8943 51.3743 74.891C50.1116 74.8781 48.8454 74.8969 47.5824 74.9195C47.3518 74.9282 47.312 74.8725 47.309 74.6514C47.2966 72.3975 47.2677 70.1432 47.2574 67.8887C47.2552 67.6343 47.208 67.5405 46.9369 67.5456C45.9576 67.5574 44.9777 67.5552 43.9974 67.539C43.747 67.534 43.6964 67.6181 43.6983 67.8537C43.7273 70.1174 43.7383 72.3835 43.7694 74.6466C43.7716 74.9011 43.7141 74.9587 43.466 74.9625C42.1841 74.9625 40.8999 74.975 39.6135 74.9998C39.3818 75.0041 39.3275 74.9192 39.324 74.6958C39.3108 72.4209 39.279 70.1461 39.2684 67.8633C39.2676 67.5684 39.1877 67.4926 38.9023 67.4874C36.115 67.5116 33.3473 67.5306 30.5687 67.5526C30.3714 67.5548 30.3028 67.5233 30.3392 67.3012C30.5993 65.6588 30.8515 64.0185 31.0956 62.3803C31.1261 62.1716 31.2254 62.1503 31.4031 62.1531C32.3629 62.1559 33.3228 62.1681 34.2801 62.1337C35.4751 62.0911 36.0279 61.4666 36.0177 60.2604C35.9837 56.5373 35.9513 52.8145 35.9206 49.0921C35.8967 46.2652 35.8728 43.4382 35.8489 40.6112C35.8382 39.4665 35.0174 38.5773 33.8203 38.4385C32.8975 38.3684 31.9713 38.3587 31.0473 38.4094C30.7735 38.4129 30.5007 38.4114 30.2287 38.431C30.0801 38.4417 30.0463 38.3915 30.0434 38.2435C30.0338 36.7751 30.0241 35.3067 30.0002 33.8374C29.9936 33.5747 30.1601 33.6159 30.3017 33.6141C31.4018 33.6012 32.5004 33.6005 33.6022 33.5849C35.2668 33.5582 36.9336 33.5947 38.5997 33.537C38.8745 33.5285 38.9642 33.4695 38.9606 33.173C38.9259 30.9415 38.9119 28.6998 38.88 26.4793C38.876 26.1994 38.9353 26.1036 39.2267 26.1049C40.4904 26.1128 41.7556 26.099 43.018 26.0742C43.2847 26.0702 43.3335 26.1612 43.3373 26.4129C43.3478 28.6224 43.3747 30.8324 43.3873 33.0414C43.3893 33.277 43.4275 33.3354 43.6723 33.3277C44.6498 33.2904 45.6313 33.2686 46.6102 33.2639C46.8922 33.2654 46.9443 33.1596 46.9422 32.9052C46.913 30.7501 46.8981 28.596 46.8668 26.4415C46.8632 26.145 46.9141 26.0253 47.2503 26.0291C48.5015 26.0426 49.7563 26.0245 51.0072 26.0003C51.2526 25.9949 51.3182 26.0602 51.3198 26.3125C51.3322 28.5663 51.3655 30.8195 51.3708 33.0729C51.3722 33.3606 51.4602 33.4225 51.7195 33.4535C53.4946 33.5641 55.2472 33.915 56.9306 34.4969C58.5201 35.0779 59.9308 35.9255 60.9403 37.3436C62.0362 38.8996 62.3518 40.6724 62.2834 42.5368C62.1894 45.1759 61.0021 47.1407 58.7214 48.4311C58.6419 48.4662 58.5953 48.5115 58.5221 48.5803ZM51.7095 61.5149L51.9931 61.4403C53.0056 61.1389 53.9802 60.7623 54.7947 60.0595C56.8523 58.2816 56.5444 54.972 54.1918 53.5267C52.8128 52.685 51.292 52.4 49.7351 52.2378C47.8203 52.0327 45.8841 52.1354 43.9555 52.1677C43.6752 52.1729 43.6465 52.2702 43.6496 52.5102C43.6871 55.6153 43.7152 58.7198 43.7338 61.8237C43.7348 62.0737 43.8215 62.1123 44.039 62.1071C44.8664 62.0927 45.6934 62.1043 46.5214 62.0922C48.2644 62.0904 50.0019 61.8935 51.7023 61.505L51.7095 61.5149ZM50.0514 47.1705C50.6144 47.0332 51.1619 46.8371 51.6851 46.5853C53.0609 45.8931 53.9089 44.8203 53.9517 43.2201C53.9945 41.6198 53.3045 40.368 51.8627 39.5995C51.1026 39.209 50.2853 38.9454 49.4424 38.8189C47.5513 38.4966 45.6445 38.5869 43.7375 38.6489C43.5063 38.6554 43.5239 38.7972 43.5259 38.9596C43.5369 40.0963 43.546 41.2343 43.5531 42.3736C43.567 44.0227 43.587 45.6867 43.5912 47.343C43.591 47.5792 43.653 47.6668 43.9043 47.6574C44.3829 47.6355 44.8614 47.6585 45.3418 47.6527C46.92 47.6157 48.5002 47.5592 50.0442 47.1606L50.0514 47.1705Z" fill="#F5F5F5"/>
<path d="M30 22H64V17H30V22Z" fill="#FF6700"/>
</svg>
