<svg width="80" height="80" viewBox="0 0 80 80" fill="none" xmlns="http://www.w3.org/2000/svg">
<rect width="80" height="80" rx="13.4149" fill="white"/>
<path d="M38.5083 37.9747C38.4643 37.8418 38.4335 37.7055 38.4097 37.5679C38.3988 37.5041 38.3862 37.4407 38.3717 37.3777C38.3404 37.2408 38.3055 37.1047 38.2678 36.9693V36.969C38.8916 36.0594 41.8735 31.3157 38.4803 28.271C34.7143 24.8918 30.3139 29.321 30.3139 29.321L30.3276 29.3407C28.3499 28.7618 26.2054 28.6939 24.119 29.3208C24.1188 29.3208 24.1186 29.3208 24.1186 29.3208C24.0928 29.2949 19.7074 24.9017 15.9525 28.271C12.1963 31.6414 16.2523 37.0942 16.2736 37.1226C16.2736 37.1226 16.2736 37.1228 16.2736 37.123C16.2303 37.2511 16.1955 37.3819 16.1725 37.5148C15.7661 39.8482 12.9999 40.5683 12.9999 44.6327C12.9999 48.6971 15.8938 52.0403 21.8005 52.0403H24.2243C24.2243 52.0403 24.2245 52.0403 24.2247 52.0403C24.2356 52.0552 25.2334 53.4176 27.2825 53.416C29.1847 53.4147 30.441 52.0519 30.4519 52.0403C30.4519 52.0403 30.4519 52.0403 30.4523 52.0403H32.7646C38.6714 52.0403 41.5653 48.7756 41.5653 44.6327C41.5653 40.8478 39.1663 39.9629 38.5085 37.9747H38.5083Z" fill="black"/>
<path d="M66.7358 33.3303C66.7358 33.3303 67.1751 29.413 63.8358 28.5713V27.0001H61.2499V28.532C57.7274 29.2825 58.1814 33.3303 58.1814 33.3303V34.0019C58.1814 34.0019 57.7273 38.0507 61.2511 38.8005H61.2508V42.1634C57.538 42.8148 58.0071 46.9956 58.0071 46.9956V47.6673C58.0071 47.6673 57.5529 51.715 61.0756 52.4654V53.9974H63.6615V52.4263C67.0009 51.5846 66.5614 47.6673 66.5614 47.6673C66.7073 47.6673 66.8257 47.5532 66.8257 47.4127V47.2502C66.8257 47.1096 66.7073 46.9956 66.5614 46.9956C66.5614 46.9956 66.9971 43.1122 63.7047 42.2478V38.8005H63.6659C67.1897 38.0507 66.7356 34.0019 66.7356 34.0019C66.8815 34.0019 66.9999 33.8879 66.9999 33.7474V33.5849C66.9999 33.4443 66.8815 33.3303 66.7356 33.3303H66.7358ZM64.6283 46.9956H64.3918C64.2459 46.9956 64.1275 47.1096 64.1275 47.2502V47.4127C64.1275 47.5532 64.2459 47.6673 64.3918 47.6673H64.6283C64.6283 50.0972 63.7905 50.5061 63.5086 50.5749C63.4623 50.5862 63.4173 50.5531 63.4173 50.5071V49.7325C63.4173 49.3044 63.134 49.0698 62.8507 48.9422C62.4927 48.781 62.0757 48.781 61.7176 48.9422C61.4343 49.0698 61.151 49.3044 61.151 49.7325V50.5071C61.151 50.5524 61.1069 50.5864 61.0613 50.5753C60.7809 50.5076 59.94 50.1019 59.94 47.6673V46.9956C59.94 44.5656 60.7778 44.1568 61.0597 44.0879C61.1061 44.0767 61.151 44.1098 61.151 44.1558V44.9303C61.151 45.3585 61.4343 45.5931 61.7176 45.7207C62.0757 45.8819 62.4927 45.8819 62.8507 45.7207C63.134 45.5931 63.4173 45.3585 63.4173 44.9303V44.1558C63.4173 44.1104 63.4614 44.0765 63.5071 44.0876C63.7874 44.1553 64.6283 44.5609 64.6283 46.9956ZM64.5661 34.0019H64.8026C64.8026 36.4366 63.9617 36.8425 63.6814 36.91C63.6357 36.9211 63.5916 36.8871 63.5916 36.8418V36.0672C63.5916 35.6391 63.3083 35.4045 63.025 35.2769C62.667 35.1157 62.25 35.1157 61.8919 35.2769C61.6086 35.4045 61.3254 35.6391 61.3254 36.0672V36.8418C61.3254 36.8878 61.2804 36.9209 61.234 36.9096C60.9521 36.8408 60.1143 36.4319 60.1143 34.0019V33.3303C60.1143 30.8956 60.9553 30.4898 61.2356 30.4223C61.2813 30.4112 61.3254 30.4453 61.3254 30.4905V31.265C61.3254 31.6932 61.6086 31.9278 61.8919 32.0554C62.25 32.2166 62.667 32.2166 63.025 32.0554C63.3083 31.9278 63.5916 31.6932 63.5916 31.265V30.4905C63.5916 30.4444 63.6366 30.4114 63.683 30.4226C63.9648 30.4915 64.8026 30.9003 64.8026 33.3303H64.5661C64.4202 33.3303 64.3018 33.4443 64.3018 33.5849V33.7474C64.3018 33.8879 64.4202 34.0019 64.5661 34.0019Z" fill="black"/>
<path d="M53.795 40.2482C53.795 40.2482 54.2516 36.1769 50.6957 35.4436V31.7859C54.1569 31.0046 53.7079 27.0001 53.7079 27.0001C53.7079 27.0001 51.7667 27.0001 51.7748 27.0001C51.7748 29.4348 50.9338 29.8406 50.6535 29.9081C50.6078 29.9192 50.5637 29.8851 50.5637 29.84V29.0654C50.5637 28.6372 50.2804 28.4027 49.9972 28.2751C49.6391 28.1139 49.2221 28.1139 48.864 28.2751C48.5808 28.4027 48.2975 28.6372 48.2975 29.0654V29.84C48.2975 29.886 48.2525 29.9191 48.2061 29.9078C47.9243 29.839 47.0864 29.4301 47.0864 27.0001C47.0946 27.0001 45.1533 27.0001 45.1533 27.0001C45.1533 27.0001 44.6874 31.1555 48.3636 31.8262V35.4386C44.7818 36.1586 45.2405 40.248 45.2405 40.248V40.9196C45.2405 40.9196 44.7818 45.0091 48.3636 45.7291V49.1736C44.6874 49.8444 45.1533 53.9996 45.1533 53.9996C45.1533 53.9996 47.0945 53.9996 47.0864 53.9996C47.0864 51.5649 47.9274 51.1591 48.2077 51.0916C48.2534 51.0805 48.2975 51.1144 48.2975 51.1598V51.9343C48.2975 52.3625 48.5808 52.5971 48.864 52.7247C49.2221 52.8859 49.6391 52.8859 49.9972 52.7247C50.2804 52.5971 50.5637 52.3625 50.5637 51.9343V51.1598C50.5637 51.1138 50.6087 51.0807 50.6551 51.0919C50.937 51.1608 51.7748 51.5696 51.7748 53.9996C51.7666 53.9996 53.7079 53.9996 53.7079 53.9996C53.7079 53.9996 54.1569 49.9952 50.6957 49.2139V45.724C54.2516 44.9908 53.795 40.9195 53.795 40.9195C53.9409 40.9195 54.0593 40.8055 54.0593 40.6649V40.5024C54.0593 40.3619 53.9409 40.2478 53.795 40.2478V40.2482ZM51.6254 40.9198H51.8619C51.8619 43.3545 51.021 43.7603 50.7407 43.8278C50.695 43.8389 50.6509 43.805 50.6509 43.7597V42.9851C50.6509 42.5569 50.3676 42.3224 50.0843 42.1948C49.7263 42.0336 49.3093 42.0336 48.9512 42.1948C48.6679 42.3224 48.3846 42.5569 48.3846 42.9851V43.7597C48.3846 43.8057 48.3397 43.8388 48.2933 43.8275C48.0114 43.7587 47.1736 43.3498 47.1736 40.9198V40.2482C47.1736 37.8135 48.0146 37.4077 48.2949 37.3402C48.3405 37.3291 48.3846 37.3632 48.3846 37.4083V38.1829C48.3846 38.6111 48.6679 38.8456 48.9512 38.9732C49.3093 39.1344 49.7263 39.1344 50.0843 38.9732C50.3676 38.8456 50.6509 38.6111 50.6509 38.1829V37.4083C50.6509 37.3623 50.6959 37.3292 50.7422 37.3405C51.0241 37.4093 51.8619 37.8182 51.8619 40.2482H51.6254C51.4795 40.2482 51.3611 40.3622 51.3611 40.5027V40.6653C51.3611 40.8058 51.4795 40.9198 51.6254 40.9198Z" fill="black"/>
</svg>
