<?xml version="1.0" encoding="UTF-8"?>
<svg id="a" data-name="Camada 1" xmlns="http://www.w3.org/2000/svg" xmlns:xlink="http://www.w3.org/1999/xlink" viewBox="0 0 1395.34 809.82">
  <defs>
    <style>
      .d {
        fill: url(#b);
        fill-rule: evenodd;
      }

      .d, .e {
        stroke-width: 0px;
      }

      .e {
        fill: url(#c);
      }
    </style>
    <linearGradient id="b" data-name="Nova amostra de gradiente 1" x1="555.7" y1="240.13" x2="1035.97" y2="240.13" gradientUnits="userSpaceOnUse">
      <stop offset="0" stop-color="#fdf3a1"/>
      <stop offset=".64" stop-color="#93cfc8"/>
      <stop offset="1" stop-color="#709ad1"/>
    </linearGradient>
    <linearGradient id="c" data-name="Nova amostra de gradiente 1" x1="638.23" y1="236.01" x2="980.95" y2="236.01" xlink:href="#b"/>
  </defs>
  <path class="d" d="m795.83,458.92c120.83,0,218.79-97.96,218.79-218.79S916.67,21.35,795.83,21.35s-218.79,97.95-218.79,218.79,97.95,218.79,218.79,218.79Zm240.13-218.79c0,132.62-107.51,240.13-240.13,240.13s-240.13-107.51-240.13-240.13S663.21,0,795.83,0s240.13,107.51,240.13,240.13Z"/>
  <path class="e" d="m840.37,59.95l9.69,134.5,130.9,32.34-124.92,50.77,9.69,134.5-86.87-103.12-124.92,50.8,71.21-114.52-86.9-103.12,130.9,32.36,71.24-114.52Z"/>
</svg>